<svg xmlns="http://www.w3.org/2000/svg" xmlns:xlink="http://www.w3.org/1999/xlink" version="1.1" id="Layer_1" x="0px" y="0px" style="enable-background:new 0 0 1080 1080;" xml:space="preserve" viewBox="-0.5 284.53 1080.6 511.97">
<style type="text/css">
	.st0{fill:#EFF2F4;}
	.st1{fill:#B7CADC;}
	.st2{fill:#F2B545;}
	.st3{fill:#1E3A6F;}
	.st4{fill:#92AFCC;}
	.st5{fill:#D85D5D;}
	.st6{fill:#E96C6C;}
	.st7{fill:#2F6597;}
	.st8{fill:#5391C2;}
	.st9{fill:#3076B1;}
	.st10{fill:#E59D29;}
	.st11{fill:#FFFFFF;}
	.st12{fill:#F6C76C;}
	.st13{fill:#F6C25F;}
	.st14{fill:#F5D6BB;}
	.st15{fill:#F5B188;}
	.st16{fill:#112642;}
</style>
<g>
	<path class="st0" d="M918.7,783.2c30.1-43.1,99.4-152.1,86.2-223c-16.7-90-115.2-125.9-264-136c-148.8-10.1-105.8-137-231.4-139.6   c-129.8-2.7-154.2,75.1-206.2,165.1c-51.9,90-140.2,35.5-206.4,127.6c-51.1,71.2,6.2,166.3,34.9,205.9H918.7z"/>
	<ellipse class="st1" cx="539.8" cy="782.8" rx="540.3" ry="13.7"/>
	<g>
		<circle class="st2" cx="420.7" cy="416.5" r="7.7"/>
		<g>
			<path class="st1" d="M416.3,408.5c-2.5,1.8-6,1.3-7.8-1.2l-5.6-7.6c-18.9-25.5-53.7-32.7-81.1-16.7     c-18.9,11.1-30.7,31.6-30.7,53.5v346.6h-11.2V436.6c0-25.9,13.9-50.1,36.2-63.1c32.3-18.9,73.5-10.4,95.8,19.7l5.6,7.6     C419.3,403.2,418.8,406.7,416.3,408.5z"/>
		</g>
		<path class="st1" d="M408.5,407.4c0,0-10.5,12.9-4.6,26.3l40.3-29.6c0,0-11.7-8-26.7-3.3L408.5,407.4z"/>
	</g>
	<g>
		<circle class="st2" cx="907.4" cy="416.5" r="7.7"/>
		<g>
			<path class="st1" d="M903.1,408.5c-2.5,1.8-6,1.3-7.8-1.2l-5.6-7.6c-18.9-25.5-53.7-32.7-81.1-16.7     c-18.9,11.1-30.7,31.6-30.7,53.5v346.6h-11.2V436.6c0-25.9,13.9-50.1,36.2-63.1c32.3-18.9,73.5-10.4,95.8,19.7l5.6,7.6     C906.1,403.2,905.6,406.7,903.1,408.5z"/>
		</g>
		<path class="st1" d="M895.3,407.4c0,0-10.5,12.9-4.6,26.3l40.3-29.6c0,0-11.7-8-26.7-3.3L895.3,407.4z"/>
	</g>
	<g>
		<g>
			<path class="st3" d="M599.4,672.6h-30.7c-30.5,0-55.2,24.7-55.2,55.2c0,30.5,24.7,55.2,55.2,55.2h30.7     c30.5,0,55.2-24.7,55.2-55.2C654.6,697.4,629.9,672.6,599.4,672.6z"/>
			<path class="st3" d="M854.3,672.6h-30.7c-30.5,0-55.2,24.7-55.2,55.2c0,30.5,24.7,55.2,55.2,55.2h30.7     c30.5,0,55.2-24.7,55.2-55.2C909.5,697.4,884.8,672.6,854.3,672.6z"/>
		</g>
		<path class="st3" d="M990.8,727.9c0-19.1-9.7-36-24.5-45.9v-9.3h-30.7c-30.5,0-55.2,24.7-55.2,55.2c0,30.5,24.7,55.2,55.2,55.2    h30.7v-9.3C981.1,763.9,990.8,747,990.8,727.9z"/>
		<path class="st1" d="M1055.1,701.8H868.3V494.9h76.1c10.5,0,20,6.2,24.3,15.7l37.4,83c0,0,48.9,39.4,48.9,53.3V701.8z"/>
		<rect x="879.2" y="505.7" class="st4" width="63.1" height="87.9"/>
		<path class="st4" d="M994.3,593.6h-45.1v-87.2c4.2,1.3,7.8,4.4,9.7,8.6L994.3,593.6z"/>
		<path class="st3" d="M736,727.9c0-19.1-9.7-36-24.5-45.9v-9.3h-30.7c-30.5,0-55.2,24.7-55.2,55.2c0,30.5,24.7,55.2,55.2,55.2h30.7    v-9.3C726.2,763.9,736,747,736,727.9z"/>
		<rect x="431.8" y="455.6" class="st5" width="137.5" height="246.2"/>
		
			<rect x="569.3" y="455.6" transform="matrix(-1 -1.224647e-16 1.224647e-16 -1 1437.6595 1157.374)" class="st6" width="299" height="246.2"/>
		<path class="st4" d="M1074.4,701.8v21.4H461.3c-9.8,0-17.8-8-17.8-17.8v-3.7H1074.4z"/>
		<path class="st7" d="M580.6,701.8c0,5.9-2.4,11.3-6.3,15.2c-3.9,3.9-9.2,6.3-15.2,6.3h-97.8c-9.8,0-17.8-8-17.8-17.8v-3.7H580.6z"/>
		<path class="st8" d="M778.5,578.7c0,33-26.7,59.7-59.7,59.7c-1.6,0-3.2-0.1-4.8-0.2c-23.8-1.9-43.7-17.8-51.4-39.4    c-2.2-6.3-3.5-13-3.5-20c0-31.7,24.6-57.5,55.8-59.6h0c1.3-0.1,2.6-0.1,3.9-0.1c15.5,0,29.7,5.9,40.3,15.7    C771,545.6,778.5,561.3,778.5,578.7z"/>
		<rect x="443.2" y="471.7" class="st7" width="114.8" height="213.9"/>
		<circle class="st9" cx="711.5" cy="727.9" r="55.2"/>
		<circle class="st1" cx="711.5" cy="727.9" r="29.4"/>
		<circle class="st3" cx="711.5" cy="727.9" r="9"/>
		<rect x="443.2" y="471.7" class="st1" width="114.8" height="32.6"/>
		<path class="st4" d="M509.5,500.1h-17.8c-0.7,0-1.2-0.5-1.2-1.2v-1.8c0-0.7,0.5-1.2,1.2-1.2h17.8c0.7,0,1.2,0.5,1.2,1.2v1.8    C510.7,499.5,510.1,500.1,509.5,500.1z"/>
		<path class="st4" d="M554.4,491.9H446.7c-0.2,0-0.3-0.2-0.3-0.3V491c0-0.2,0.2-0.3,0.3-0.3h107.6c0.2,0,0.3,0.2,0.3,0.3v0.5    C554.7,491.7,554.6,491.9,554.4,491.9z"/>
		<path class="st4" d="M554.4,484.8H446.7c-0.2,0-0.3-0.2-0.3-0.3v-0.5c0-0.2,0.2-0.3,0.3-0.3h107.6c0.2,0,0.3,0.2,0.3,0.3v0.5    C554.7,484.6,554.6,484.8,554.4,484.8z"/>
		<path class="st4" d="M554.4,477.7H446.7c-0.2,0-0.3-0.2-0.3-0.3v-0.5c0-0.2,0.2-0.3,0.3-0.3h107.6c0.2,0,0.3,0.2,0.3,0.3v0.5    C554.7,477.6,554.6,477.7,554.4,477.7z"/>
		<path class="st10" d="M1031.4,701.8h23.7v-23.7h-10.1c-7.5,0-13.5,6.1-13.5,13.5V701.8z"/>
		<path class="st1" d="M758.5,537.5c-2.8,8.4-7.4,11.4-6.3,15.3c1.2,3.9,5.8,15.8-5.8,25.9c-11.6,10.1-15.8,0.6-13,0    c2.8-0.6,4-11.8,0.9-19.6c-3-7.9-10.7-5.3-13.2-11.4c-2.6-6,1.6-12.3-4.6-18.8c-2.9-3-2.6-6.6-1.5-9.7h0c1.3-0.1,2.6-0.1,3.9-0.1    c15.5,0,29.7,5.9,40.3,15.7C759,535.6,758.8,536.5,758.5,537.5z"/>
		<path class="st1" d="M733.7,624.8c-3.6,8.6-14.6,10.1-19.7,13.3c-23.8-1.9-43.7-17.8-51.4-39.4c1.9-2,3.7-4.8,4.3-8.4    c1.4-9.1,3.5-16.1,10.1-11.7c6.6,4.4,6.6,11.5,21.6,11.6c15,0.1,24.7,3.6,24.4,13C722.6,612.7,738.3,614.1,733.7,624.8z"/>
		<g>
			<g>
				<g>
					<path class="st11" d="M725.5,546.7c-0.4,0.3-0.9,0.6-1.3,0.9c-6.4,4.7-12.7,9.8-18.9,15.3c-16.6,14.8-30.4,30.7-38.8,44.8       c-7.9,13.2-10.1,23.4-6.2,27.8c4.2,4.7,15.7,3.2,30.9-4.1l4.4,2.1c-0.2,0.5-0.6,0.8-1,1.1c-10.6,5.3-19.6,7.9-26.4,7.9       c-4.9,0-8.6-1.4-11.1-4.1c-5.4-6.1-3.4-17.7,5.7-32.9c8.6-14.5,22.7-30.8,39.7-45.8c6.3-5.6,12.8-10.9,19.3-15.6       c0.4-0.3,0.9-0.6,1.3-0.9c1-0.7,2.3-0.5,3,0.5C726.7,544.7,726.5,546.1,725.5,546.7z"/>
				</g>
			</g>
			<g>
				<g>
					<g>
						<polygon class="st11" points="726.1,550.3 730.5,540.4 719.8,541.5       "/>
					</g>
				</g>
			</g>
		</g>
		<g>
			<rect x="476.8" y="625.1" class="st2" width="81.2" height="60.5"/>
			<rect x="515.6" y="625.1" class="st10" width="42.4" height="60.5"/>
			
				<rect x="542.1" y="625.1" transform="matrix(-1 -1.224647e-16 1.224647e-16 -1 1094.9857 1267.3102)" class="st2" width="10.8" height="17"/>
			
				<rect x="489" y="625.1" transform="matrix(-1 -1.224647e-16 1.224647e-16 -1 988.7782 1267.3102)" class="st12" width="10.8" height="17"/>
		</g>
		<g>
			<rect x="505" y="564.4" class="st2" width="53" height="60.5"/>
			<rect x="543.8" y="564.4" class="st10" width="14.2" height="60.5"/>
			
				<rect x="517.2" y="564.4" transform="matrix(-1 -1.224647e-16 1.224647e-16 -1 1045.1802 1145.8833)" class="st12" width="10.8" height="17"/>
		</g>
		<g>
			<path class="st4" d="M993.2,683.8h-113c-0.6,0-1.1-0.5-1.1-1.1v-95.6c0-0.6,0.5-1.1,1.1-1.1c0.6,0,1.1,0.5,1.1,1.1v94.5h110.8     v-88c0-0.6,0.5-1.1,1.1-1.1c0.6,0,1.1,0.5,1.1,1.1v89.1C994.3,683.4,993.8,683.8,993.2,683.8z"/>
		</g>
		<circle class="st9" cx="966.3" cy="727.9" r="55.2"/>
		<circle class="st1" cx="966.3" cy="727.9" r="29.4"/>
		<circle class="st3" cx="966.3" cy="727.9" r="9"/>
	</g>
	<g>
		<g>
			<g>
				<circle class="st3" cx="224.9" cy="774.5" r="8.7"/>
			</g>
			<rect x="55.3" y="763.8" class="st8" width="184.2" height="9"/>
			<g>
				<path class="st8" d="M132,767c-1.8,0-3.3-1.5-3.3-3.3V637.6c0-8.6-7-15.6-15.6-15.6H77.4c-8.6,0-15.6,7-15.6,15.6v126.1      c0,1.8-1.5,3.3-3.3,3.3s-3.3-1.5-3.3-3.3V637.6c0-12.2,9.9-22.1,22.1-22.1h35.7c12.2,0,22.1,9.9,22.1,22.1v126.1      C135.2,765.6,133.8,767,132,767z"/>
			</g>
			<rect x="55.3" y="763.8" class="st9" width="104.7" height="9"/>
			<g>
				<circle class="st3" cx="71.2" cy="774.5" r="8.7"/>
				<path class="st8" d="M76.7,774.5c0-3-2.4-5.4-5.4-5.4c-3,0-5.4,2.4-5.4,5.4c0,3,2.4,5.4,5.4,5.4      C74.2,779.9,76.7,777.5,76.7,774.5z"/>
				<path class="st1" d="M73.6,774.5c0-1.3-1.1-2.4-2.4-2.4c-1.3,0-2.4,1.1-2.4,2.4c0,1.3,1.1,2.4,2.4,2.4      C72.5,776.9,73.6,775.8,73.6,774.5z"/>
			</g>
			<g>
				<circle class="st3" cx="143.8" cy="774.5" r="8.7"/>
				<path class="st8" d="M149.3,774.5c0-3-2.4-5.4-5.4-5.4c-3,0-5.4,2.4-5.4,5.4c0,3,2.4,5.4,5.4,5.4      C146.8,779.9,149.3,777.5,149.3,774.5z"/>
				<path class="st1" d="M146.2,774.5c0-1.3-1.1-2.4-2.4-2.4c-1.3,0-2.4,1.1-2.4,2.4c0,1.3,1.1,2.4,2.4,2.4      C145.1,776.9,146.2,775.8,146.2,774.5z"/>
			</g>
		</g>
		<g>
			<g>
				<rect x="58.6" y="703.3" class="st2" width="123.5" height="60.5"/>
				
					<rect x="58.5" y="703.3" transform="matrix(-1 -1.224647e-16 1.224647e-16 -1 193.8585 1467.0359)" class="st10" width="76.9" height="60.5"/>
				<rect x="58.6" y="703.3" class="st2" width="123.6" height="21.6"/>
				<rect x="58.6" y="724.8" class="st13" width="123.6" height="3.4"/>
				<rect x="58.6" y="703.3" class="st10" width="76.8" height="21.6"/>
			</g>
			<g>
				<rect x="86.9" y="643" class="st2" width="102.6" height="60.5"/>
				
					<rect x="86.8" y="643" transform="matrix(-1 -1.224647e-16 1.224647e-16 -1 237.5155 1346.5638)" class="st10" width="63.9" height="60.5"/>
				<rect x="113.3" y="643" class="st2" width="10.8" height="17"/>
				<rect x="166.5" y="643" class="st12" width="10.8" height="17"/>
			</g>
			<g>
				<rect x="146.3" y="713.7" class="st2" width="82.3" height="50.1"/>
				
					<rect x="146.2" y="713.7" transform="matrix(-1 -1.224647e-16 1.224647e-16 -1 343.6252 1477.4209)" class="st10" width="51.2" height="50.1"/>
				<rect x="167.5" y="713.7" class="st2" width="8.7" height="14.1"/>
				<rect x="210.1" y="713.7" class="st12" width="8.7" height="14.1"/>
			</g>
			<g>
				<rect x="160" y="666.2" class="st2" width="72.1" height="47.5"/>
				
					<rect x="160" y="666.2" transform="matrix(-1 -1.224647e-16 1.224647e-16 -1 364.8609 1379.8539)" class="st10" width="44.9" height="47.5"/>
				<rect x="160" y="666.2" class="st2" width="72.1" height="16.9"/>
				<rect x="160" y="683.1" class="st13" width="72.1" height="2.7"/>
				<rect x="160" y="666.2" class="st10" width="44.9" height="16.9"/>
			</g>
		</g>
	</g>
	<g>
		<polygon class="st14" points="216.9,762.9 216.5,768.2 216,774.8 203.5,774.5 203.5,772.1 204.1,766 204.3,764.2   "/>
		<path class="st3" d="M203.5,772.1l-2.4,5.9c-1,2.5,0.8,5.2,3.5,5.2h25.9c0.9,0,1.7-0.6,1.9-1.5l0,0c0.2-0.9-0.2-1.8-1-2.2    l-15.5-7.5C216,772.1,205.3,777,203.5,772.1z"/>
		<polygon class="st14" points="240,774.5 240,772.1 239.2,766.8 239.1,766.4 238.8,764.3 252.1,763 252.3,767.4 252.5,772.1     252.5,774.8   "/>
		<path class="st3" d="M240,772.1l-2.4,5.9c-1,2.5,0.8,5.2,3.5,5.2h25.9c0.9,0,1.7-0.6,1.9-1.5l0,0c0.2-0.9-0.2-1.8-1-2.2l-15.5-7.5    C252.5,772.1,241.8,777,240,772.1z"/>
		<path class="st15" d="M204.3,764.2l12.7-1.4l-0.4,5.3c-5.3,0.1-10.1-1.4-12.4-2.3L204.3,764.2z"/>
		<path class="st15" d="M252.3,767.4c-5.2,0.7-10.1,0-13.1-0.6l-0.1-0.4l-0.3-2.1l13.3-1.3L252.3,767.4z"/>
		<path class="st3" d="M207.7,648.5l-4.1,115.7c0,0,8.2,2.7,13.7,0l9.1-89.2l12,90.1c0,0,7.1,2.7,14.8,0L247,651.3    C247,651.3,225.4,643.6,207.7,648.5z"/>
		<polygon class="st16" points="226.5,675 228.4,668.1 229.7,699.4   "/>
		<path class="st3" d="M250.7,538.2c0,0,5.5,0.7,7-6.1l-2.7-0.3c0,0,3.2-1,4.1-4.5c0,0-6.8,1.1-10.5-1.4c-3.6-2.4-16.1-5.4-20.5,1.4    c0,0-6.3,3.6-5.4,12.1s6.2,12.1,7,16.6C230.6,560.6,250.7,538.2,250.7,538.2z"/>
		<path class="st8" d="M250.6,627.8c-0.2,9.7,0.1,17.3,0.1,17.3l-3.7,6.2c-13.1,2.1-39.3-2.8-39.3-2.8l-2.1-6.8    c0,0,1.6-1.9,2.6-12.5c0-0.5,0.1-0.9,0.1-1.4c0.6-6.3,1.9-23.6,3-38.4c1-12.9,1.8-23.9,1.8-23.9l10.7-3.8l4.2-1.5l11.7,0.4    l2.3,1.1l16,7.9c2.2,1.1,3.9,3,4.6,5.4l7.4,24.2l-18.6,10.8c-0.4,4.5-0.7,9.2-0.8,13.6C250.7,625.1,250.6,626.5,250.6,627.8z"/>
		<polygon class="st0" points="242.1,561.8 238.8,569.7 234.2,563.4 228.8,569.5 223.9,561.7 228.1,560.2 239.7,560.6   "/>
		<path class="st14" d="M250.7,538.2c0,0.7-0.1,1.4-0.1,2c-0.2,3.8-0.7,6.7-1.4,9c-0.6,2.2-1.9,4.1-3.6,5.5    c-1.7,1.3-3.9,2.1-6.2,2.1l0.4,3.8c0.3,2.7-1.8,5-4.5,5h-2.7c-2.8,0-5-2.6-4.4-5.4l1.1-5.3l1.2-5.8c0,0-3.5-1.4-2.4-5.6    c1.1-4.1,4.4-2.4,4.4-2.4l0.1,2.1c0,0.5,0.4,0.9,0.9,1c0.4,0.1,0.9-0.2,1.1-0.6l1.7-3.5l0.7-4.4l0.2-1    C241.3,538.2,250.6,538.2,250.7,538.2z"/>
		<g>
			<rect x="226.6" y="586.9" class="st2" width="74.9" height="36.7"/>
			
				<rect x="226.5" y="586.9" transform="matrix(-1 -1.224647e-16 1.224647e-16 -1 499.6875 1210.5084)" class="st10" width="46.6" height="36.7"/>
			<rect x="226.6" y="586.9" class="st2" width="74.9" height="13.1"/>
			<rect x="226.6" y="600" class="st13" width="74.9" height="2.1"/>
			<rect x="226.6" y="586.9" class="st10" width="46.6" height="13.1"/>
		</g>
		<path class="st9" d="M253.1,624.8l-0.6,3c0,0-0.8,0-1.9,0c-3.3-0.1-9.9-0.3-12-1.3c0,0-18.1,2.2-25.6,0.4c0,0-2.6-0.3-4.8,2.3    c0-0.5,0.1-0.9,0.1-1.4c0.6-6.3,1.9-23.6,3-38.4l2.9,2.8l-1.7,12.7c-0.2,1.7,0.7,3.2,2.3,3.8l21,7.9l14.8,7L253.1,624.8z"/>
		<path class="st14" d="M259,623.8c-2.7,2.2-8.4,3.2-8.4,3.2l-12.6-1.7l-0.7-7.9l1.3,0.1l2.9,0.3l5.4-1c0.9,0,3.1-0.8,4-1.2    c0.6-0.2,1.2,0.3,1.1,0.9c-0.3,1-0.9,2-1.6,2.5c-1,0.7-3.2,2.5-3.2,2.5c1.9,1.4,6.4,1.9,9.3,2.2c0,0,0,0,0,0    C258,623.8,259,623.8,259,623.8z"/>
		<path class="st15" d="M239.3,556.9c0,0-3.5-0.4-5.5-3.5c0,0,1,4.7,5.8,6.1L239.3,556.9z"/>
		<path class="st15" d="M247.2,621.5L247.2,621.5c-0.7-0.5-0.6-1.5,0.1-2l4.6-3c-0.3,1-0.9,2-1.6,2.5    C249.4,619.7,247.2,621.5,247.2,621.5z"/>
		<path class="st15" d="M259,623.8c-2.7,2.2-8.4,3.2-8.4,3.2l-12.6-1.7l-0.7-7.9l1.3,0.1c-0.8,3.8,0,6.5,0,6.5s2.3,0.9,6.9,1.2    c4.6,0.4,10.8-1.5,11-1.6c0,0,0,0,0,0C258,623.8,259,623.8,259,623.8z"/>
		<path class="st8" d="M213.2,565.5l-2.6,0.7c-2.7,0.7-4.9,2.8-5.7,5.5l-11.4,35.9c-2.1,6.5,2,13.3,8.7,14.5    c9.1,1.7,22.1,3.4,35.9,3.1c0,0-0.8-3.5,0.6-7.7l-31-9.2l6.7-16.1C214.3,592.2,219.2,568.8,213.2,565.5z"/>
		<polygon class="st15" points="230.3,549.1 231.3,549 229.1,554.9   "/>
		<path class="st15" d="M250.7,538.2c0,0.7-0.1,1.4-0.1,2c-3.4-0.4-11-1.7-13.9-4.4l0.2-1C241.3,538.2,250.6,538.2,250.7,538.2z"/>
		<path class="st14" d="M301.5,606.9l-8.1-0.8c-0.6-0.1-1.2,0.5-1.1,1.1l0.5,6.7c0,0.6,0.5,1.1,1,1.3l7.7,2.2l1.1-0.8l0.7-8.3    L301.5,606.9z"/>
	</g>
	<g>
		<polygon class="st14" points="369.9,760.1 368.5,764.3 367.1,768.8 363.5,774.6 354.3,770.4 354.3,766.9 356.4,759.3 357.1,756.8       "/>
		<path class="st3" d="M354.3,766.9l-2.5,6.2c-1,2.6,0.7,4.2,3.7,5.5l10.3,4.7h13.7c0.9,0,1.7-0.6,2-1.6l0,0    c0.2-0.9-0.2-1.9-1.1-2.3l-6.8-3.3l-6.5-7.4C367.1,768.8,356.1,772.1,354.3,766.9z"/>
		<path class="st15" d="M369.9,760.1l-1.3,4.1c-5,0.1-9.9-3.3-12.1-5l0.7-2.5L369.9,760.1z"/>
		<polygon class="st14" points="400.8,774.1 400.8,771.6 399.9,766 399.8,765.5 399.5,763.4 413.4,762 413.6,766.6 413.8,771.6     413.8,774.4   "/>
		<path class="st3" d="M400.8,771.6l-2.5,6.2c-1,2.6,0.9,5.5,3.7,5.5h27.2c0.9,0,1.7-0.6,2-1.6l0,0c0.2-0.9-0.2-1.9-1.1-2.3    l-16.2-7.8C413.8,771.6,402.6,776.7,400.8,771.6z"/>
		<path class="st15" d="M413.6,766.6c-5.5,0.7-10.6,0-13.7-0.7l-0.1-0.4l-0.3-2.2l13.9-1.3L413.6,766.6z"/>
		<path class="st3" d="M366.9,642l-2.5,70.5l-8.6,44.5c0,0,9.5,7.7,15.3,4.9l12.8-50.4l2.6-41.7l12.6,94.5c0,0,7.4,2.9,15.5,0    l-6.5-119.3C408.1,644.9,385.4,636.9,366.9,642z"/>
		<polygon class="st16" points="386.5,669.8 388.6,662.5 389.9,695.3   "/>
		<path class="st8" d="M411.9,620.3c-0.2,10.2,0.1,18.1,0.1,18.1l-3.9,6.5c-13.7,2.2-41.2-2.9-41.2-2.9l-2.2-7.1c0,0,1.6-2,2.8-13.1    c0-0.5,0.1-1,0.1-1.5c0.6-6.6,2-24.7,3.2-40.2c1-13.5,1.9-25.1,1.9-25.1l11.2-4l4.4-1.6l12.2,0.4l2.4,1.2l16.8,8.2    c2.3,1.1,4.1,3.2,4.8,5.6l7.8,25.4l-19.5,11.4c-0.4,4.7-0.7,9.6-0.8,14.2C411.9,617.5,411.9,618.9,411.9,620.3z"/>
		<path class="st15" d="M435.8,614.6l1.7,3.1c0,0,3.2,2.3,10.8,0.7l3.2-4.3L435.8,614.6z"/>
		<polygon class="st0" points="402.9,551.1 399.5,559.4 394.6,552.8 389,559.2 383.9,551.1 388.2,549.5 400.4,549.9   "/>
		<g>
			<rect x="386.7" y="577.5" class="st2" width="78.5" height="38.4"/>
			
				<rect x="386.6" y="577.5" transform="matrix(-1 -1.224647e-16 1.224647e-16 -1 822.0768 1193.4015)" class="st10" width="48.9" height="38.4"/>
			<rect x="386.7" y="577.5" class="st2" width="78.5" height="13.7"/>
			<rect x="386.7" y="591.2" class="st13" width="78.5" height="2.2"/>
			<rect x="386.7" y="577.5" class="st10" width="48.8" height="13.7"/>
		</g>
		<path class="st9" d="M414.5,617.2l-0.6,3.1c0,0-0.8,0-2,0c-3.5-0.1-10.4-0.3-12.6-1.3c0,0-18.9,2.3-26.8,0.4c0,0-2.7-0.3-5,2.4    c0-0.5,0.1-1,0.1-1.5c0.6-6.6,2-24.7,3.2-40.2l3.1,2.9l-1.8,13.3c-0.2,1.7,0.8,3.4,2.4,4l22,8.3L412,616L414.5,617.2z"/>
		<path class="st14" d="M420.7,616.1c-2.9,2.3-8.8,3.3-8.8,3.3l-13.2-1.8l-0.8-8.3l1.4,0.1l3,0.3l5.6-1c1,0,3.2-0.8,4.2-1.2    c0.6-0.3,1.3,0.3,1.1,0.9c-0.3,1.1-0.9,2.1-1.6,2.6c-1,0.7-3.3,2.6-3.3,2.6c2,1.5,6.7,2,9.7,2.3c0,0,0,0,0,0    C419.6,616.1,420.7,616.1,420.7,616.1z"/>
		<path class="st15" d="M408.3,613.7L408.3,613.7c-0.7-0.5-0.6-1.6,0.1-2.1l4.8-3.1c-0.3,1.1-0.9,2.1-1.6,2.6    C410.6,611.8,408.3,613.7,408.3,613.7z"/>
		<path class="st15" d="M420.7,616.1c-2.9,2.3-8.8,3.3-8.8,3.3l-13.2-1.8l-0.8-8.3l1.4,0.1c-0.9,4,0,6.9,0,6.9s2.4,0.9,7.2,1.3    c4.8,0.4,11.3-1.6,11.5-1.7c0,0,0,0,0,0C419.6,616.1,420.7,616.1,420.7,616.1z"/>
		<path class="st8" d="M372.6,555.1l-2.7,0.7c-2.8,0.8-5.1,2.9-6,5.8L352,599.2c-2.2,6.8,2.1,13.9,9.1,15.2    c9.5,1.7,23.2,3.6,37.6,3.2c0,0-0.9-3.7,0.6-8.1l-32.5-9.6l7-16.8C373.8,583,378.9,558.5,372.6,555.1z"/>
		<path class="st3" d="M381,524.2c0,0-0.8,12.3,8.6,19.7c9.4,7.4,6.6-22.3,6.6-22.3L381,524.2z"/>
		<path class="st14" d="M408.1,539.2c-0.6,1.7-1.6,3-3,4c-1.4,1-3,1.5-4.8,1.5l0.1,5.8l0-0.6v0.1c0,3.5-2.9,6.4-6.4,6.4    c-3.8,0-6.7-3.3-6.4-7l0.2-1l1-11.1c-2,0.7-4.8-5.4-3.3-8.3c1.5-2.9,4.3-1.2,4.3-1.2c0.2,0.8,0.8,1.7,1.3,2.4    c0.3,0.4,1,0.3,1.1-0.3l0.8-3.3l0.4-1.9h16c0,0.7,0,1.3,0,1.9C409.7,532.3,409.1,536.1,408.1,539.2z"/>
		<path class="st6" d="M409.5,524.9c0,0-1.2-12.7-14.1-12.7s-14.4,12-14.4,12l12.5,0.7H409.5z"/>
		<path class="st5" d="M418.5,523.2H394c-0.3,0-0.5,0.2-0.5,0.5v0.7c0,0.3,0.2,0.5,0.5,0.5h24.5c0.3,0,0.5-0.2,0.5-0.5v-0.7    C418.9,523.4,418.7,523.2,418.5,523.2z"/>
		<polygon class="st15" points="388.9,537.5 390.3,536.5 387.8,548.5 387.8,548.5   "/>
		<path class="st15" d="M400.3,544.8l0.1,5.8l-0.1,0c0,0-5-2.8-6.6-9.1C393.8,541.5,396.4,544.8,400.3,544.8z"/>
		<path class="st15" d="M409.6,526.8h-16.5l0.4-1.9h16C409.6,525.5,409.6,526.2,409.6,526.8z"/>
	</g>
	<path class="st2" d="M531.4,325.3c-21.6,0.6-39.5,17.9-40.9,39.5c-0.8,12.8,4.1,24.4,12.4,32.6l24.5,33.6c2.6,3.6,8,3.6,10.7,0   l24.5-33.6c7.7-7.6,12.4-18.2,12.4-29.9C574.9,343.8,555.3,324.6,531.4,325.3z M532.7,390.7c-12.8,0-23.2-10.4-23.2-23.2   c0-12.8,10.4-23.2,23.2-23.2c12.8,0,23.2,10.4,23.2,23.2C555.9,380.3,545.5,390.7,532.7,390.7z"/>
	<g>
		<path class="st2" d="M611,411l2.3,8.1c0.1,0.5,0.6,0.9,1.1,1.1l8.1,2.3c1.5,0.4,1.5,2.6,0,3l-8.1,2.3c-0.5,0.1-0.9,0.6-1.1,1.1    l-2.3,8.1c-0.4,1.5-2.6,1.5-3,0l-2.3-8.1c-0.1-0.5-0.6-0.9-1.1-1.1l-8.1-2.3c-1.5-0.4-1.5-2.6,0-3l8.1-2.3    c0.5-0.1,0.9-0.6,1.1-1.1l2.3-8.1C608.4,409.5,610.6,409.5,611,411z"/>
		<path class="st2" d="M328.6,411l2.3,8.1c0.1,0.5,0.6,0.9,1.1,1.1l8.1,2.3c1.5,0.4,1.5,2.6,0,3l-8.1,2.3c-0.5,0.1-0.9,0.6-1.1,1.1    l-2.3,8.1c-0.4,1.5-2.6,1.5-3,0l-2.3-8.1c-0.1-0.5-0.6-0.9-1.1-1.1l-8.1-2.3c-1.5-0.4-1.5-2.6,0-3l8.1-2.3    c0.5-0.1,0.9-0.6,1.1-1.1l2.3-8.1C326,409.5,328.2,409.5,328.6,411z"/>
		<path class="st2" d="M173.3,594.7l2.3,8.1c0.1,0.5,0.6,0.9,1.1,1.1l8.1,2.3c1.5,0.4,1.5,2.6,0,3l-8.1,2.3    c-0.5,0.1-0.9,0.6-1.1,1.1l-2.3,8.1c-0.4,1.5-2.6,1.5-3,0l-2.3-8.1c-0.1-0.5-0.6-0.9-1.1-1.1l-8.1-2.3c-1.5-0.4-1.5-2.6,0-3    l8.1-2.3c0.5-0.1,0.9-0.6,1.1-1.1l2.3-8.1C170.7,593.2,172.9,593.2,173.3,594.7z"/>
		
			<ellipse transform="matrix(0.1602 -0.9871 0.9871 0.1602 288.2744 1285.6816)" class="st1" cx="899.7" cy="473.4" rx="7.1" ry="7.1"/>
		<circle class="st1" cx="349.3" cy="504.3" r="7.1"/>
		
			<ellipse transform="matrix(0.2298 -0.9732 0.9732 0.2298 -435.4439 580.8828)" class="st1" cx="149.3" cy="565.5" rx="7.1" ry="7.1"/>
		
			<ellipse transform="matrix(0.1602 -0.9871 0.9871 0.1602 39.3534 734.9069)" class="st1" cx="451.6" cy="344.3" rx="7.1" ry="7.1"/>
	</g>
</g>
</svg>